# xmcd
#
# Track frame offsets: 
#        150
#        10095
#        23275
#        34899
#        56065
#        67329
#        82647
#        102733
#        111282
#        120262
#        132564
#        144284
#        161572
#        170393
#        180993
#        194553
#
# Disc length: 2825 seconds
#
# Revision: 0
# Processed by: cddbd v1.5.2PL0 Copyright (c) Steve Scherf et al.
# Submitted via: ExactAudioCopy v0.95b4
#
DISCID=d10b0710
DTITLE=American Outtakes - Johnny Cash
DYEAR=1996
DGENRE=Country
TTITLE0=What on Earth
TTITLE1=The Drifter
TTITLE2=I witnessed a Crime (w/Billy Gibson)
TTITLE3=Banks of Ohio
TTITLE4=The next time I'm in Town
TTITLE5=Breaking Bread
TTITLE6=To beat the Devil
TTITLE7=Friends of California
TTITLE8=The Caretaker
TTITLE9=The wonderful you
TTITLE10=East Virginia Blues
TTITLE11=Bury me no (take two)
TTITLE12=Old chunk of Coal
TTITLE13=Go on blue
TTITLE14=If I give my Soul
TTITLE15=When the man comes around (take two)
EXTD=
EXTT0=
EXTT1=
EXTT2=
EXTT3=
EXTT4=
EXTT5=
EXTT6=
EXTT7=
EXTT8=
EXTT9=
EXTT10=
EXTT11=
EXTT12=
EXTT13=
EXTT14=
EXTT15=
PLAYORDER=
